<svg id="Layer_2" height="512" viewBox="0 0 128 128" width="512" xmlns="http://www.w3.org/2000/svg" data-name="Layer 2">
	<path d="m117.123 65.1v-15.4a23.638 23.638 0 0 0 -23.611-23.61h-13.812a7.873 7.873 0 0 0 1.35-4.417v-1.149a7.925 7.925 0 0 0 -7.916-7.916h-2.967a7.906 7.906 0 0 0 -6.167 2.964 7.9 7.9 0 0 0 -6.167-2.964h-2.391a8.475 8.475 0 0 0 -6.854 13.481h-14.1a23.638 23.638 0 0 0 -23.611 23.611v15.4a25.154 25.154 0 0 0 8.111 45.089 182.911 182.911 0 0 0 45.012 5.203 182.941 182.941 0 0 0 45.013-5.206 25.155 25.155 0 0 0 8.11-45.089zm-46.956-48.992h2.965a4.422 4.422 0 0 1 4.416 4.416v1.148a4.422 4.422 0 0 1 -4.416 4.417h-7.382v-5.565a4.422 4.422 0 0 1 4.417-4.416zm-19.715 4.992a5 5 0 0 1 4.99-4.991h2.391a4.422 4.422 0 0 1 4.417 4.416v5.565h-6.808a5 5 0 0 1 -4.99-4.99zm-36.075 28.6a20.133 20.133 0 0 1 20.111-20.11h59.024a20.133 20.133 0 0 1 20.111 20.11v13.333l-.875-.448a10 10 0 0 1 -5.463-8.934 16.833 16.833 0 0 0 -16.814-16.814h-52.942a16.82 16.82 0 0 0 -16.814 16.814 10 10 0 0 1 -5.463 8.934l-.875.448zm108.759 43.644a21.74 21.74 0 0 1 -14.991 13.456 179.411 179.411 0 0 1 -44.145 5.092 179.374 179.374 0 0 1 -44.144-5.1 21.674 21.674 0 0 1 -4.556-40.3l1.548-.793a13.672 13.672 0 0 0 1.243-.73 13.468 13.468 0 0 0 6.124-11.319 13.306 13.306 0 0 1 13.315-13.313h52.941a13.33 13.33 0 0 1 13.314 13.314 13.479 13.479 0 0 0 7.367 12.049l1.549.794.014.007a21.677 21.677 0 0 1 10.421 26.843z" />
</svg>
