<svg aria-hidden="true" style="position: absolute; width: 0; height: 0; overflow: hidden;" version="1.1" xmlns="http://www.w3.org/2000/svg" xmlns:xlink="http://www.w3.org/1999/xlink">
	<defs>
		<symbol id="plane" viewBox="0 -101 713.75189 713">
			<title>
				Plane
			</title>
			<path d="m85.085938 304.40625c-6.144532 2.882812-8.855469 10.140625-6.117188 16.34375l28.066406 60.25c1.378906 3 3.894532 5.335938 6.988282 6.488281 1.355468.492188 2.792968.746094 4.238281.746094 1.808593.015625 3.59375-.371094 5.238281-1.117187l212.054688-99.046876-19.207032 200.824219c-.371094 3.953125 1.152344 7.839844 4.109375 10.480469 9.296875 7.695312 20.882813 12.078125 32.9375 12.472656 3.324219-.003906 6.628907-.421875 9.851563-1.242187 17.214844-4.492188 30.5625-19.832031 39.667968-46.03125l83.449219-247.101563 165.273438-77.09375c48.648437-22.699218 73.71875-68.726562 56.882812-104.652344-9.554687-18.777343-27.855469-31.550781-48.773437-34.054687-23.242188-3.507813-46.996094.148437-68.105469 10.484375l-190.726563 89.433594-205.0625-80.207032c-25.824218-9.726562-46.277343-9.476562-60.621093.878907-12.035157 9.875-18.882813 24.71875-18.589844 40.285156.125 3.949219 2.113281 7.601563 5.363281 9.859375l138.082032 94.921875-79.078126 37.421875-132.601562-33.683594c-5.433594-1.335937-11.089844 1.113282-13.84375 5.988282l-33.050781 59.496093c-1.714844 3.152344-1.984375 6.894531-.738281 10.261719 1.238281 3.371094 3.871093 6.039062 7.226562 7.328125l98.167969 40.542969zm57.121093-248.09375c.734375-5.273438 3.402344-10.074219 7.488281-13.472656 7.113282-5.117188 20.085938-4.367188 37.421876 2.117187l182.617187 71.226563-83.328125 38.917968zm-112.257812 180.117188 21.703125-38.542969 127.605468 31.679687c2.75.695313 5.652344.433594 8.238282-.742187l414.75-193.71875c16.488281-8.132813 35.058594-11.09375 53.261718-8.484375 12.765626 1.175781 24.136719 8.542968 30.4375 19.707031 10.46875 22.457031-10.109374 55.261719-44.914062 71.476563l-143.695312 67.363281 8.734374-25.828125c2.207032-6.644532-1.398437-13.824219-8.042968-16.027344-6.652344-2.203125-13.828125 1.402344-16.03125 8.046875l-102.660156 305.476563c-6.113282 17.34375-13.722657 27.699218-22.203126 29.9375-5.253906 1.011718-10.691406-.019532-15.21875-2.863282l24.949219-261.953125c.652344-6.886719-4.398437-13-11.292969-13.652343-6.886718-.660157-13 4.398437-13.65625 11.285156l-3.863281 40.039062-214.054687 99.789063-17.578125-37.421875 35.167969-16.460938c4.527343-1.996094 7.445312-6.472656 7.445312-11.414062 0-4.945313-2.917969-9.421875-7.445312-11.414063zm0 0" />
		</symbol>
		<symbol id="card" viewBox="0 0 413.2 413.2">
			<title>
				Card
			</title>
			<path d="M361.6,54.2H118.8C90.8,54.2,68,77,68,105v10H51.2c-25.6,0-46.4,18.8-50.4,43.2C0.4,159,0,159.8,0,161c0,0.4,0,0.8,0,1.2 c0,1.2,0,2.4,0,3.6v142.4c0,1.2,0,2.4,0,3.6c0,0.4,0,0.8,0,1.2c0,0.8,0.4,2,0.8,2.8C4.4,340.2,25.6,359,51.2,359h243.2 c25.6,0,46.4-18.8,50.4-43.2c0.4-0.8,0.8-2,0.8-2.8c0-0.4,0-1.2,0-1.6c0-1.2,0-2.4,0-3.6v-10h16.8c28,0,50.8-22.8,50.8-50.8V105.4 C412.8,77.4,390,54.2,361.6,54.2z M51.2,128.6h243.2c16.8,0,31.2,11.2,36,26.4H14.8C19.6,139.8,34,128.6,51.2,128.6z M294,346.6 H51.2c-16.8,0-31.2-11.2-36.4-26.4h315.6C325.6,335.4,311.2,346.6,294,346.6z M332,307H13.2V167.8H332V307z M400,247.4h-0.4 c0,20.8-17.2,38-38,38h-16.8V166.6c0-1.2,0-2.4,0-3.6c0-0.4,0.4-1.2,0.4-1.6c0-1.2-0.4-2-0.8-2.8c-4-24.4-24.8-43.2-50.4-43.2 H80.8v-10c0-20.8,17.2-38,38-38H362c20.8,0,38,17.2,38,38V247.4z" />
			<path d="M193.6,189c-7.6,0-14.8,1.6-21.2,4.8c-6.4-3.2-13.6-4.8-20.8-4.8c-26.8,0-48.4,21.6-48.4,48.4s21.6,48.4,48.4,48.4 c7.2,0,14.4-1.6,20.8-4.8c6.4,3.2,13.6,4.8,21.2,4.8c26.8,0,48.4-21.6,48.4-48.4C242,211,220.4,189,193.6,189z M151.6,273 c-19.6,0-35.6-16-35.6-35.6c0-19.6,16-35.6,35.6-35.6c2.8,0,5.2,0.4,8,0.8c-8.8,8.8-14.4,21.2-14.4,34.4 c0,13.6,5.6,25.6,14.4,34.4C156.8,272.6,154.4,273,151.6,273z M193.6,273c-19.6,0-35.6-16-35.6-35.6c0-19.6,16-35.6,35.6-35.6 c19.6,0,35.6,16,35.6,35.6C229.2,257,213.2,273,193.6,273z" />
		</symbol>
		<symbol id="purse" viewBox="0 0 128 128">
			<title>
				Purse
			</title>
			<path d="m117.123 65.1v-15.4a23.638 23.638 0 0 0 -23.611-23.61h-13.812a7.873 7.873 0 0 0 1.35-4.417v-1.149a7.925 7.925 0 0 0 -7.916-7.916h-2.967a7.906 7.906 0 0 0 -6.167 2.964 7.9 7.9 0 0 0 -6.167-2.964h-2.391a8.475 8.475 0 0 0 -6.854 13.481h-14.1a23.638 23.638 0 0 0 -23.611 23.611v15.4a25.154 25.154 0 0 0 8.111 45.089 182.911 182.911 0 0 0 45.012 5.203 182.941 182.941 0 0 0 45.013-5.206 25.155 25.155 0 0 0 8.11-45.089zm-46.956-48.992h2.965a4.422 4.422 0 0 1 4.416 4.416v1.148a4.422 4.422 0 0 1 -4.416 4.417h-7.382v-5.565a4.422 4.422 0 0 1 4.417-4.416zm-19.715 4.992a5 5 0 0 1 4.99-4.991h2.391a4.422 4.422 0 0 1 4.417 4.416v5.565h-6.808a5 5 0 0 1 -4.99-4.99zm-36.075 28.6a20.133 20.133 0 0 1 20.111-20.11h59.024a20.133 20.133 0 0 1 20.111 20.11v13.333l-.875-.448a10 10 0 0 1 -5.463-8.934 16.833 16.833 0 0 0 -16.814-16.814h-52.942a16.82 16.82 0 0 0 -16.814 16.814 10 10 0 0 1 -5.463 8.934l-.875.448zm108.759 43.644a21.74 21.74 0 0 1 -14.991 13.456 179.411 179.411 0 0 1 -44.145 5.092 179.374 179.374 0 0 1 -44.144-5.1 21.674 21.674 0 0 1 -4.556-40.3l1.548-.793a13.672 13.672 0 0 0 1.243-.73 13.468 13.468 0 0 0 6.124-11.319 13.306 13.306 0 0 1 13.315-13.313h52.941a13.33 13.33 0 0 1 13.314 13.314 13.479 13.479 0 0 0 7.367 12.049l1.549.794.014.007a21.677 21.677 0 0 1 10.421 26.843z" />
		</symbol>
	</defs>
</svg>
