<?xml version="1.0" encoding="iso-8859-1"?>
<!-- Generator: Adobe Illustrator 19.0.0, SVG Export Plug-In . SVG Version: 6.00 Build 0) -->
<svg version="1.1" id="Capa_1" xmlns="http://www.w3.org/2000/svg" xmlns:xlink="http://www.w3.org/1999/xlink" x="0px" y="0px" viewBox="0 0 413.2 413.2" style="enable-background:new 0 0 413.2 413.2;" xml:space="preserve">
	<path d="M361.6,54.2H118.8C90.8,54.2,68,77,68,105v10H51.2c-25.6,0-46.4,18.8-50.4,43.2C0.4,159,0,159.8,0,161c0,0.4,0,0.8,0,1.2 c0,1.2,0,2.4,0,3.6v142.4c0,1.2,0,2.4,0,3.6c0,0.4,0,0.8,0,1.2c0,0.8,0.4,2,0.8,2.8C4.4,340.2,25.6,359,51.2,359h243.2 c25.6,0,46.4-18.8,50.4-43.2c0.4-0.8,0.8-2,0.8-2.8c0-0.4,0-1.2,0-1.6c0-1.2,0-2.4,0-3.6v-10h16.8c28,0,50.8-22.8,50.8-50.8V105.4 C412.8,77.4,390,54.2,361.6,54.2z M51.2,128.6h243.2c16.8,0,31.2,11.2,36,26.4H14.8C19.6,139.8,34,128.6,51.2,128.6z M294,346.6 H51.2c-16.8,0-31.2-11.2-36.4-26.4h315.6C325.6,335.4,311.2,346.6,294,346.6z M332,307H13.2V167.8H332V307z M400,247.4h-0.4 c0,20.8-17.2,38-38,38h-16.8V166.6c0-1.2,0-2.4,0-3.6c0-0.4,0.4-1.2,0.4-1.6c0-1.2-0.4-2-0.8-2.8c-4-24.4-24.8-43.2-50.4-43.2 H80.8v-10c0-20.8,17.2-38,38-38H362c20.8,0,38,17.2,38,38V247.4z" />
	<path d="M193.6,189c-7.6,0-14.8,1.6-21.2,4.8c-6.4-3.2-13.6-4.8-20.8-4.8c-26.8,0-48.4,21.6-48.4,48.4s21.6,48.4,48.4,48.4 c7.2,0,14.4-1.6,20.8-4.8c6.4,3.2,13.6,4.8,21.2,4.8c26.8,0,48.4-21.6,48.4-48.4C242,211,220.4,189,193.6,189z M151.6,273 c-19.6,0-35.6-16-35.6-35.6c0-19.6,16-35.6,35.6-35.6c2.8,0,5.2,0.4,8,0.8c-8.8,8.8-14.4,21.2-14.4,34.4 c0,13.6,5.6,25.6,14.4,34.4C156.8,272.6,154.4,273,151.6,273z M193.6,273c-19.6,0-35.6-16-35.6-35.6c0-19.6,16-35.6,35.6-35.6 c19.6,0,35.6,16,35.6,35.6C229.2,257,213.2,273,193.6,273z" />
</svg>
